<?xml version="1.0" encoding="UTF-8"?>
<svg width="88px" height="43px" viewBox="0 0 88 43" version="1.1" xmlns="http://www.w3.org/2000/svg" xmlns:xlink="http://www.w3.org/1999/xlink">
    <!-- Generator: Sketch 42 (36781) - http://www.bohemiancoding.com/sketch -->
    <title>Website/Menu_Bar_Logo</title>
    <desc>Created with Sketch.</desc>
    <defs></defs>
    <g id="Website" stroke="none" stroke-width="1" fill="none" fill-rule="evenodd" fill-opacity="0.3">
        <g id="Website/Menu_Bar_Logo" fill="#000000">
            <g id="Logo/Large-(Without-Border)/bunq-(Transparent)" transform="translate(0.000000, 4.000000)">
                <g id="Group">
                    <path d="M37.9310345,8.5 L41.9770115,8.5 L41.9770115,19 C41.9770115,23.96725 37.8976552,28 32.8735632,28 C27.8494713,28 23.7701149,23.96725 23.7701149,19 L23.7701149,8.5 L27.816092,8.5 L27.816092,19 C27.816092,22.03555 30.0823448,24.5 32.8735632,24.5 C35.6647816,24.5 37.9310345,22.03555 37.9310345,19 L37.9310345,8.5 Z" id="Fill-19"></path>
                    <path d="M60.183908,27.5 L64.2298851,27.5 L64.2298851,17 C64.2298851,12.03275 60.1505287,8 55.1264368,8 C50.1023448,8 46.0229885,12.03275 46.0229885,17 L46.0229885,27.5 L50.0689655,27.5 L50.0689655,17 C50.0689655,13.96445 52.3352184,11.5 55.1264368,11.5 C57.9176552,11.5 60.183908,13.96445 60.183908,17 L60.183908,27.5 Z" id="Fill-20"></path>
                    <path d="M3.54022989,27.5 L0,27.5 L0,18.5 L0.0126436782,18.5 C0.00404597701,18.33435 0,18.16765 0,18 L0,0 L4.04597701,0 L4.04597701,10.00155 C5.7371954,8.745 7.83857471,8 10.1149425,8 C15.6973793,8 20.2298851,12.48085 20.2298851,18 C20.2298851,23.51915 15.6973793,28 10.1149425,28 C7.69747126,28 5.47673563,27.1597 3.73595402,25.75865 L3.54022989,27.5 Z M9.86206897,11.5 C13.3512184,11.5 16.183908,14.41255 16.183908,18 C16.183908,21.58745 13.3512184,24.5 9.86206897,24.5 C6.37291954,24.5 3.54022989,21.58745 3.54022989,18 C3.54022989,14.41255 6.37291954,11.5 9.86206897,11.5 Z" id="Fill-21"></path>
                    <path d="M84.4597701,8.5 L88,8.5 L88,17.5 L87.9873563,17.5 C87.995954,17.66565 88,17.83235 88,18 L88,36 L83.954023,36 L83.954023,25.99845 C82.2628046,27.255 80.1614253,28 77.8850575,28 C72.3026207,28 67.7701149,23.51915 67.7701149,18 C67.7701149,12.48085 72.3026207,8 77.8850575,8 C80.3025287,8 82.5232644,8.8403 84.264046,10.24135 L84.4597701,8.5 Z M78.137931,24.5 C74.6487816,24.5 71.816092,21.58745 71.816092,18 C71.816092,14.41255 74.6487816,11.5 78.137931,11.5 C81.6270805,11.5 84.4597701,14.41255 84.4597701,18 C84.4597701,21.58745 81.6270805,24.5 78.137931,24.5 Z" id="Fill-22"></path>
                </g>
            </g>
        </g>
    </g>
</svg>